:version 1.10
:name ASF
:units
  mass 1
  length 1
  angle deg
:documentation
  ASF file generated by Kaydara
:root
  axis xyz
  order  tx ty tz rx ry rz
  position 0 0 0
  orientation 0 0 0
:bonedata
  begin
    id 1
    name lowerbackDummy
    direction 0 0 0
    length 0
    axis 0 -0 0 xyz
  end
  begin
    id 2
    name lowerback
    direction 0.0149039 0.998517 -0.0523597
    length 4.68464
    axis 0 -0 0 xyz
    dof rx ry rz
    limits( -inf , inf )
( -inf , inf )
( -inf , inf )

  end
  begin
    id 3
    name upperback
    direction -0.00882659 0.999418 -0.0329624
    length 4.68933
    axis 0 -0 0 xyz
    dof rx ry rz
    limits( -inf , inf )
( -inf , inf )
( -inf , inf )

  end
  begin
    id 4
    name thorax
    direction -0.0165585 0.999826 -0.0085833
    length 4.68976
    axis 0 -0 0 xyz
    dof rx ry rz
    limits( -inf , inf )
( -inf , inf )
( -inf , inf )

  end
  begin
    id 5
    name lowerneck
    direction -0.0130877 0.999911 0.00260353
    length 3.85007
    axis 0 -0 0 xyz
    dof rx ry rz
    limits( -inf , inf )
( -inf , inf )
( -inf , inf )

  end
  begin
    id 6
    name upperneck
    direction -0.0348454 0.928205 -0.370435
    length 3.70427
    axis 0 -0 0 xyz
    dof rx ry rz
    limits( -inf , inf )
( -inf , inf )
( -inf , inf )

  end
  begin
    id 7
    name head
    direction 0 0 0
    length 0
    axis 0 0 0 xyz
    dof rx ry rz
    limits( -inf , inf )
( -inf , inf )
( -inf , inf )

  end
  begin
    id 8
    name lclavicle
    direction 0.987582 0.144023 0.0627671
    length 7.76078
    axis 0 -0 0 xyz
    dof rx ry rz
    limits( -inf , inf )
( -inf , inf )
( -inf , inf )

  end
  begin
    id 9
    name lhumerus
    direction 1 -4.48958e-011 -1.45183e-018
    length 12.0426
    axis 180 -30 -90 xyz
    dof rx ry rz
    limits( -inf , inf )
( -inf , inf )
( -inf , inf )

  end
  begin
    id 10
    name lradius
    direction 1 -4.48999e-011 3.74805e-027
    length 5.43051
    axis 180 -30 -90 xyz
    dof rz ry rx
    limits( -inf , inf )
( -inf , inf )
( -inf , inf )

  end
  begin
    id 11
    name lwrist
    direction 1 -4.48988e-011 -4.48237e-017
    length 2.71524
    axis -90 90 0 xyz
    dof rz rx ry
    limits( -inf , inf )
( -inf , inf )
( -inf , inf )

  end
  begin
    id 12
    name lhand
    direction 1 -4.48882e-011 -4.48237e-017
    length 1.61667
    axis -90 90 0 xyz
    dof ry rx rz
    limits( -inf , inf )
( -inf , inf )
( -inf , inf )

  end
  begin
    id 13
    name lfingers
    direction 0 0 0
    length 0
    axis 0 0 0 xyz
    dof rz ry rx
    limits( -inf , inf )
( -inf , inf )
( -inf , inf )

  end
  begin
    id 14
    name lthumb
    direction 0 0 0
    length 0
    axis 0 0 0 xyz
    dof ry rx rz
    limits( -inf , inf )
( -inf , inf )
( -inf , inf )

  end
  begin
    id 15
    name rclavicle
    direction -0.980998 0.169556 0.0943023
    length 7.31716
    axis 0 -0 0 xyz
    dof rx ry rz
    limits( -inf , inf )
( -inf , inf )
( -inf , inf )

  end
  begin
    id 16
    name rhumerus
    direction -1 -1.83355e-005 2.45537e-005
    length 12.4217
    axis 180 30 90 xyz
    dof rx ry rz
    limits( -inf , inf )
( -inf , inf )
( -inf , inf )

  end
  begin
    id 17
    name rradius
    direction -1 -4.48967e-011 0
    length 5.51244
    axis 180 30 90 xyz
    dof rz ry rx
    limits( -inf , inf )
( -inf , inf )
( -inf , inf )

  end
  begin
    id 18
    name rwrist
    direction -1 -4.48964e-011 -4.48237e-017
    length 2.75622
    axis -90 -90 0 xyz
    dof rz rx ry
    limits( -inf , inf )
( -inf , inf )
( -inf , inf )

  end
  begin
    id 19
    name rhand
    direction -1 -4.48882e-011 -4.48237e-017
    length 1.81335
    axis -90 -90 0 xyz
    dof ry rx rz
    limits( -inf , inf )
( -inf , inf )
( -inf , inf )

  end
  begin
    id 20
    name rfingers
    direction 0 0 0
    length 0
    axis 0 0 0 xyz
    dof rz ry rx
    limits( -inf , inf )
( -inf , inf )
( -inf , inf )

  end
  begin
    id 21
    name rthumb
    direction 0 0 0
    length 0
    axis 0 0 0 xyz
    dof ry rx rz
    limits( -inf , inf )
( -inf , inf )
( -inf , inf )

  end
  begin
    id 22
    name rfemurDummy
    direction -0.640058 -0.688614 0.340788
    length 5.51442
    axis 0 -0 0 xyz
  end
  begin
    id 23
    name rfemur
    direction -0.34202 -0.939693 0
    length 14.6194
    axis 0 -0 -20 xyz
    dof rx ry rz
    limits( -inf , inf )
( -inf , inf )
( -inf , inf )

  end
  begin
    id 24
    name rtibia
    direction -0.34202 -0.939693 0
    length 17.7267
    axis 0 -0 -20 xyz
    dof rz ry rx
    limits( -inf , inf )
( -inf , inf )
( -inf , inf )

  end
  begin
    id 25
    name rfoot
    direction -0.0979793 -0.269196 0.958089
    length 4.88571
    axis -90 -7.62852e-016 -20 xyz
    dof ry rx rz
    limits( -inf , inf )
( -inf , inf )
( -inf , inf )

  end
  begin
    id 26
    name rtoes
    direction 0 0 0
    length 0
    axis 0 0 0 xyz
    dof rz ry rx
    limits( -inf , inf )
( -inf , inf )
( -inf , inf )

  end
  begin
    id 27
    name lfemurDummy
    direction 0.653368 -0.678499 0.335782
    length 5.59662
    axis 0 -0 0 xyz
  end
  begin
    id 28
    name lfemur
    direction 0.34202 -0.939693 0
    length 14.6166
    axis 0 -0 20 xyz
    dof rx ry rz
    limits( -inf , inf )
( -inf , inf )
( -inf , inf )

  end
  begin
    id 29
    name ltibia
    direction 0.34202 -0.939693 0
    length 17.6582
    axis 0 -0 20 xyz
    dof rz ry rx
    limits( -inf , inf )
( -inf , inf )
( -inf , inf )

  end
  begin
    id 30
    name lfoot
    direction 0.0811271 -0.222895 0.971461
    length 5.14087
    axis -90 7.62852e-016 20 xyz
    dof ry rx rz
    limits( -inf , inf )
( -inf , inf )
( -inf , inf )

  end
  begin
    id 31
    name ltoes
    direction 0 0 0
    length 0
    axis 0 0 0 xyz
    dof rz ry rx
    limits( -inf , inf )
( -inf , inf )
( -inf , inf )

  end
:hierarchy
  begin
    root lowerbackDummy rfemurDummy lfemurDummy
    lowerbackDummy lowerback
    lowerback upperback
    upperback thorax
    thorax lowerneck lclavicle rclavicle
    lowerneck upperneck
    upperneck head
    lclavicle lhumerus
    lhumerus lradius
    lradius lwrist
    lwrist lhand lthumb
    lhand lfingers
    rclavicle rhumerus
    rhumerus rradius
    rradius rwrist
    rwrist rhand rthumb
    rhand rfingers
    rfemurDummy rfemur
    rfemur rtibia
    rtibia rfoot
    rfoot rtoes
    lfemurDummy lfemur
    lfemur ltibia
    ltibia lfoot
    lfoot ltoes
  end

:SAMPLES-PER-SECOND 30
:FULLY-SPECIFIED
:DEGREES
20
root  0.2601177674 36.632667 -49.5853334 10.23560047 0.832817018 -4.832930088
lowerback  -1.56633997 1.564200044 7.971300125
upperback  -1.472990036 2.006969929 0.2228869945
thorax  -0.382250011 0.9455170035 -4.207900047
lowerneck  -20.23579979 -0.6424030066 -0.822198987
upperneck  32.91770172 0.3553499877 -2.604660034
head  14.81989956 -0.3222360015 -0.8678579926
lclavicle  0 5.864150125e-015 -2.067359921e-014
lhumerus  -58.93270111 32.67240143 48.04600143
lradius  -3.221951076e-031 -1.444948201e-031 24.15480042
lwrist  -7.062250077e-031 -3.531125038e-031 -9.98911953
lhand  -7.071408467e-031 -2.916359901 20.35149956
lfingers  90 7.125020027 -90
lthumb  91.56144151 3.70992187 67.15522636
rclavicle  0 5.864150125e-015 -2.067359921e-014
rhumerus  -27.76779938 -1.869420052 -78.63629913
rradius  2.828999194e-031 2.113198429e-031 36.75889969
rwrist  0 -0 -18.04990005
rhand  -3.539701739e-031 -3.98935008 12.39210033
rfingers  -90 -7.125020027 -90
rthumb  -78.57306024 -26.3919819 -65.54805539
rfemur  -3.405090094 14.36520004 31.11809921
rtibia  -0 0 15.55389977
rfoot  -0 -20.03700066 -24.7737999
rtoes  0.3005403555 19.99783422 -90.87875163
lfemur  -42.38499832 -3.700030088 -15.86019993
ltibia  -0 0 26.5883007
lfoot  -0 -11.91329956 16.24449921
ltoes  -4.28387454 -19.554201 -102.6152248
21
root  0.2681066671 36.62666561 -49.27844551 10.08370018 0.6222659945 -4.841310024
lowerback  -1.517740011 1.768890023 7.98762989
upperback  -1.355000019 2.278039932 0.01318200026
thorax  -0.242433995 1.08912003 -4.427750111
lowerneck  -20.16379929 -0.7613130212 -0.7067400217
upperneck  32.79389954 0.09486869723 -2.502209902
head  14.74139977 -0.4014349878 -0.8904989958
lclavicle  0 5.864150125e-015 -2.067359921e-014
lhumerus  -58.0021019 32.12799835 48.78730011
lradius  -3.208910448e-031 -1.473681708e-031 24.66679955
lwrist  -7.062250077e-031 -0 -9.196849823
lhand  -3.536561366e-031 -3.177279949 20.28149986
lfingers  90 7.125020027 -90
lthumb  91.5300269 3.680331473 67.40704003
rclavicle  0 5.864150125e-015 -2.067359921e-014
rhumerus  -27.83709908 -1.865159988 -78.87280273
rradius  2.816000448e-031 2.130489501e-031 37.10990143
rwrist  7.062250077e-031 -8.827812596e-032 -18.16720009
rhand  -3.538797345e-031 -3.773560047 12.15320015
rfingers  -90 -7.125020027 -90
rthumb  -78.57230477 -26.15553791 -65.36561048
rfemur  -1.910210013 14.23260021 31.2262001
rtibia  -0 0 14.15429974
rfoot  -0 -19.6364994 -24.52260017
rtoes  0.4461371389 19.99522714 -91.30451725
lfemur  -42.32619858 -4.137499809 -15.31299973
ltibia  -0 0 25.55649948
lfoot  -0 -11.7215004 16.35720062
ltoes  -4.382806921 -19.53308222 -102.9109643
22
root  0.2725377796 36.61755539 -48.98333212 10.1281004 0.7545089722 -4.914889812
lowerback  -1.269639969 1.384930015 7.743690014
upperback  -1.081689954 1.779270053 0.3061380088
thorax  -0.1816229969 0.8519690037 -4.000609875
lowerneck  -21.96439934 -0.4726769924 -1.158329964
upperneck  33.23490143 0.7743210196 -2.56994009
head  15.36929989 -0.1984719932 -0.7326329947
lclavicle  0 5.864150125e-015 -2.067359921e-014
lhumerus  -58.03310013 33.43999863 48.73709869
lradius  -3.196140345e-031 -1.501176515e-031 25.15870094
lwrist  -1.059337512e-030 -3.531125038e-031 -8.664329529
lhand  -3.537805469e-031 -3.521610022 20.69039917
lfingers  90 7.125020027 -90
lthumb  91.6791718 4.104332602 67.72652627
rclavicle  0 5.864150125e-015 -2.067359921e-014
rhumerus  -26.90880013 -0.2365369946 -79.10359955
rradius  2.805020077e-031 2.144925734e-031 37.40420151
rwrist  7.062250077e-031 1.765562519e-031 -18.56170082
rhand  -3.538323348e-031 -3.655339956 11.95370007
rfingers  -90 -7.125020027 -90
rthumb  -78.6043886 -25.96397682 -65.27975904
rfemur  -0.6417250037 14.32489967 31.47290039
rtibia  -0 0 12.67539978
rfoot  -0 -19.28070068 -24.67020035
rtoes  -0.2072010332 19.99897061 -89.39417474
lfemur  -42.60559845 -5.194590092 -14.3664999
ltibia  -0 0 24.72229958
lfoot  -0 -11.91619968 16.84000015
ltoes  -4.577350305 -19.49006535 -103.4934298
23
root  0.2813622238 36.59800131 -48.67644423 10.12300014 0.682980001 -5.014780045
lowerback  -1.214540005 1.613369942 7.765530109
upperback  -1.270959973 2.097249985 0.1523019969
thorax  -0.3622449934 0.9983789921 -4.170949936
lowerneck  -21.17550087 -0.5564929843 -0.9602469802
upperneck  33.02740097 0.5308200121 -2.521399975
head  15.08679962 -0.2599900067 -0.7847610116
lclavicle  0 5.864150125e-015 -2.067359921e-014
lhumerus  -57.85250092 33.04790115 48.44589996
lradius  -3.195359178e-031 -1.502838567e-031 25.18849945
lwrist  0 -0 -8.713040352
lhand  -7.073574002e-031 -3.242460012 21.44829941
lfingers  90 7.125020027 -90
lthumb  91.97754036 4.766639236 67.43638471
rclavicle  0 5.864150125e-015 -2.067359921e-014
rhumerus  -27.71179962 -0.2351929992 -79.21089935
rradius  2.78538519e-031 2.170362499e-031 37.92559814
rwrist  1.412450015e-030 -0 -18.72229958
rhand  -3.53682799e-031 -3.254159927 11.99950027
rfingers  -90 -7.125020027 -90
rthumb  -78.37755147 -25.9703799 -64.84117672
rfemur  0.7592620254 14.28899956 31.67539978
rtibia  -0 0 11.06359959
rfoot  -0 -18.61569977 -24.54120064
rtoes  -1.696989621 19.93081375 -85.03284003
lfemur  -42.85169983 -6.463920116 -13.17020035
ltibia  -0 0 24.19079971
lfoot  -0 -12.71020031 17.7052002
ltoes  -4.345691271 -19.54106481 -102.7999781
24
root  0.2911511134 36.58577927 -48.36422177 10.04839993 0.5372930169 -5.190770149
lowerback  -1.455039978 1.99849999 7.942910194
upperback  -1.539880037 2.598740101 -0.08365730196
thorax  -0.4234890044 1.237100005 -4.501619816
lowerneck  -19.1345005 -0.7694200277 -0.5668129921
upperneck  32.39450073 0.01324389968 -2.511339903
head  14.32730007 -0.4113110006 -0.9179739952
lclavicle  0 5.864150125e-015 -2.067359921e-014
lhumerus  -57.06489944 30.93460083 49.93500137
lradius  -3.167950443e-031 -1.559786533e-031 26.2140007
lwrist  0 -0 -7.070559978
lhand  -3.534333533e-031 -2.44156003 20.80480003
lfingers  90 7.125020027 -90
lthumb  91.74815676 4.061536225 66.68820856
rclavicle  0 5.864150125e-015 -2.067359921e-014
rhumerus  -28.84329987 -0.861496985 -79.25740051
rradius  2.77883057e-031 2.178748425e-031 38.09830093
rwrist  7.062250077e-031 -8.827812596e-032 -18.34300041
rhand  -0 -2.778019905 12.18630028
rfingers  -90 -7.125020027 -90
rthumb  -78.04303596 -26.09618674 -64.29238883
rfemur  2.333839893 14.28509998 31.96120071
rtibia  -0 0 9.345129967
rfoot  -0 -17.60740089 -24.41130066
rtoes  -1.589543937 19.93931263 -85.34797098
lfemur  -43.09540176 -7.999470234 -11.69629955
ltibia  -0 0 23.95540047
lfoot  -0 -13.90110016 19.00169945
ltoes  -4.505273704 -19.50623348 -103.2774872
25
root  0.3049466554 36.56555536 -48.04244454 9.975049973 0.4254409969 -5.393010139
lowerback  -0.5731949806 1.380329967 7.678800106
upperback  -1.382249951 1.852920055 0.4651120007
thorax  -0.8821799755 0.8555949926 -3.821719885
lowerneck  -21.72179985 -0.3468979895 -1.616090059
upperneck  33.29119873 1.065809965 -2.361619949
head  15.34160042 -0.1042670012 -0.5086489916
lclavicle  0 5.864150125e-015 -2.067359921e-014
lhumerus  -57.8022995 32.7344017 49.66149902
lradius  -3.153400599e-031 -1.58899613e-031 26.74349976
lwrist  -7.062250077e-031 -3.531125038e-031 -6.604589939
lhand  -3.534428548e-031 -2.477420092 20.52090073
lfingers  90 7.125020027 -90
lthumb  91.63497904 3.805737734 66.73027583
rclavicle  0 5.864150125e-015 -2.067359921e-014
rhumerus  -27.68149948 1.364840031 -79.47940063
rradius  2.787062299e-031 2.168208426e-031 37.88130188
rwrist  7.062250077e-031 -8.827812596e-032 -18.20439911
rhand  -3.534725497e-031 -2.586280107 12.12339973
rfingers  -90 -7.125020027 -90
rthumb  -77.97435464 -26.02203672 -64.10052933
rfemur  4.009300232 14.24680042 32.26929855
rtibia  -0 0 7.482089996
rfoot  -0 -16.5394001 -24.31200027
rtoes  -3.199320995 19.75280213 -80.60867615
lfemur  -43.35029984 -9.418270111 -10.27820015
ltibia  -0 0 23.95509911
lfoot  -0 -15.24050045 20.25329971
ltoes  -5.298002472 -19.31328542 -105.6626026
